<svg width="1280" height="1280" viewBox="0 0 1280 1280" xmlns="http://www.w3.org/2000/svg">
 <path style="fill:#eda;" d="m664 192c-115 0-231 40-320 116-89 76-151 191-151 332 0 133 51 246 135 324 84 78 198 121 323 125 3e-3 0 0-1e-4 0 0 175-1 271-34 384-134l-89-91c45-18 93-77 113-123 22-52 30-106 30-153-2-103-34-191-106-264-86-88-206-131-319-131zm0 56c98-1e-5 206 39 279 114l-67 68c-51-58-129-91-211-91-121 0-316 82-316 300 0 171 114 298 304 302 85 2 160-16 228-62l68 69c-87 64-191 87-296 84-226-6-404-155-404-392 0-248 212-391 415-391zm-34 175c88 0 188 39 194 174l3 112c0 15 18 20 31 17 4-1 8-2 12-3l72 72c-21 16-48 27-80 29-38 4-71-7-91-26-40 26-94 43-137 43-116 0-173-55-173-138 0-91 70-140 195-133 27 2 52 9 79 20-4-53-34-86-102-87-35-1-69 11-102 32l-60-60c44-27 101-51 158-53zm373 25c19 41 30 87 30 139 0 40-7 88-26 131l-77-77c2-15 3-33 3-52 0-22-3-44-8-63l77-77zm-373 202c-52 0-72 15-74 53-1 43 31 62 94 58 35-2 62-15 86-30v-62c-30-14-70-18-106-19z"/>
</svg>
