<svg width="1280" height="1280" viewBox="0 0 1280 1280" xmlns="http://www.w3.org/2000/svg">
 <path style="fill:#eda;" d="m672 108c-276-2e-5 -563 193-563 530 0 321 241 523 547 531 143 4 284-28 402-114l-93-93c-92 62-194 87-309 84-259-5-413-177-413-409 0-296 264-407 429-407 111 0 218 44 287 123l91-92c-99-102-244-154-378-154zm-46 237c-78 2-156 35-215 71l81 81c45-27 92-44 139-43 92 2 133 45 138 118-37-15-70-24-107-27-170-10-265 57-265 180 0 113 77 187 235 187 58 0 130-24 185-59 28 25 73 40 124 35 43-3 79-18 108-39l-97-97c-5 2-10 3-16 4-18 3-43-3-43-24l-4-151c-9-183-145-235-264-236zm505 33-104 105c7 27 11 55 11 86 0 26-2 50-5 70l105 105c25-57 35-122 35-177 0-71-15-134-41-189zm-505 274c48 1 102 7 143 26v84c-32 20-68 37-116 40-85 5-129-20-127-79 2-51 29-71 100-71z"/>
</svg>