<svg width="256" height="256" version="1.1" viewBox="0 0 256 256" xmlns="http://www.w3.org/2000/svg">
 <path d="m0 0v256h256v-256h-256zm16 16h13.891v72.359h21.68v23.641h-35.57v-96zm54.244 0h15.148l16.896 96h-14.535l-2.209-15.848h-15.822l-2.1758 15.848h-14.197l16.895-96zm26.617 0h15.424l9.0762 32.414 9.0762-32.414h15.332l-17.479 55.793v40.207h-13.922v-40.207l-17.508-55.793zm53.355 0h37.225v20.496h-23.305v15.258h21.619v19.58h-21.619v18.926h23.98v21.74h-37.9v-96zm45.566 0h23.15c4.293 0 7.5747 0.7858 9.8438 2.3574 2.2691 1.5716 4.0982 4.4971 5.4883 8.7754 1.3901 4.2346 2.0859 9.4077 2.0859 15.52 0 5.326-0.53269 9.931-1.5957 13.816-1.063 3.8417-2.5245 6.9642-4.3848 9.3652-1.1857 1.528-2.8103 2.7928-4.875 3.7969 1.6558 1.1787 2.8628 2.3584 3.6191 3.5371 0.51107 0.7858 1.2462 2.4673 2.207 5.043 0.98119 2.5757 1.6358 4.562 1.9629 5.959l6.7148 27.83h-15.699l-7.4219-29.338c-0.94037-3.7981-1.7777-6.2634-2.5137-7.3984-1.0016-1.4843-2.1368-2.2266-3.4043-2.2266h-1.2266v38.963h-13.951v-96zm13.951 19.383v19.516h5.8574c0.63372 0 1.8604-0.43743 3.6797-1.3105 0.91993-0.39291 1.6659-1.3965 2.2383-3.0117 0.59283-1.6153 0.88867-3.4709 0.88867-5.5664 0-3.0996-0.45899-5.4797-1.3789-7.1387-0.91992-1.6589-2.6488-2.4883-5.1836-2.4883h-6.1016zm-132.07 5.502-4.9375 34.51h9.9043l-4.9668-34.51zm-61.666 96.756h23.086c5.0282 0 8.7896 2.7238 11.283 8.1699 2.5141 5.4461 3.7715 13.196 3.7715 23.25 0 10.334-1.3685 18.41-4.1074 24.229-2.7185 5.8185-6.878 8.7285-12.479 8.7285h-7.6055v37.982h-13.949v-102.36zm52.428 0h15.146l16.893 102.36h-14.531l-2.209-16.896h-15.82l-2.1758 16.896h-14.195l16.893-102.36zm36.424 0h23.088c5.0282 0 8.7876 2.7238 11.281 8.1699 2.5141 5.4461 3.7715 13.196 3.7715 23.25 0 10.334-1.3685 18.41-4.1074 24.229-2.7185 5.8185-6.878 8.7285-12.479 8.7285h-7.6035v37.982h-13.951v-102.36zm45.377 0h37.221v21.854h-23.301v16.27h21.615v20.877h-21.615v20.178h23.975v23.182h-37.895v-102.36zm45.561 0h23.148c4.2924 0 7.573 0.83795 9.8418 2.5137 2.2687 1.6757 4.0984 4.7937 5.4883 9.3555 1.3899 4.5151 2.084 10.032 2.084 16.549 0 5.6789-0.53088 10.59-1.5938 14.732-1.0629 4.0961-2.5247 7.4242-4.3848 9.9844-1.1855 1.6292-2.8107 2.9782-4.875 4.0488 1.6556 1.2568 2.861 2.5147 3.6172 3.7715 0.511 0.83788 1.2483 2.6306 2.209 5.377 0.9811 2.7462 1.6339 4.864 1.9609 6.3535l6.7148 29.674h-15.697l-7.4199-31.281c-0.94022-4.0497-1.7778-6.6784-2.5137-7.8887-1.0016-1.5826-2.137-2.375-3.4043-2.375h-1.2266v41.545h-13.949v-102.36zm13.949 20.668v20.807h5.8574c0.63364 0 1.8586-0.46552 3.6777-1.3965 0.91978-0.41894 1.666-1.4906 2.2383-3.2129 0.59276-1.7223 0.88867-3.6994 0.88867-5.9336 0-3.3049-0.45911-5.8425-1.3789-7.6113-0.91969-1.7688-2.6471-2.6524-5.1816-2.6524h-6.1016zm-179.79 0.13868v22.832h3.4043c2.6776 0 4.5573-1.0479 5.6406-3.1426 1.0833-2.1412 1.625-4.8631 1.625-8.168 0-3.2118-0.46993-5.9356-1.4102-8.1699-0.94023-2.2343-2.7069-3.3516-5.3027-3.3516h-3.957zm88.854 0v22.832h3.4024c2.6776 0 4.5593-1.0479 5.6426-3.1426 1.0833-2.1412 1.623-4.8631 1.623-8.168 0-3.2118-0.46991-5.9356-1.4102-8.1699-0.94023-2.2343-2.7069-3.3516-5.3027-3.3516h-3.9551zm-42.955 5.7266-4.9355 36.795h9.9023l-4.9668-36.795z" fill="#fff" stop-color="#000000" stroke-miterlimit="16" stroke-width="0" style="paint-order:markers fill stroke"/>
</svg>
