<svg width="1280" height="1280" version="1.1" viewBox="0 0 1280 1280" xmlns="http://www.w3.org/2000/svg">
  <filter id="shadow" x="0" y="0" width="160%" height="160%">
    <feDropShadow dx="16" dy="32" stdDeviation="16" flood-color="#000000" flood-opacity="0.3" />
  </filter>
  <path d="m240 240v800h800v-800z" style="fill:#3159b4;paint-order:markers fill stroke;stop-color:#000000;stroke-miterlimit:16;stroke-width:0 filter:url(#shadow)"/>
  <path d="m200 200v880h880v-880zm440 202c47.7 2.44 36.1 97.7 79.9 118 48.9 22.4 126-61.6 160-20 40.1 48.9-53 117-60 180-7.42 66.6 72.3 158 20 200-49.4 39.5-117-60-180-60-63.2 0-95.3 105-140 60-29.8-29.8 21.7-83.9 0-120-20.9-34.7-106 17.9-120-20-15.3-39.9 75.5-57.6 80-100 4.71-44.5-80.3-80.1-60-120 18.4-36.1 83.9-1.44 120-20 40.8-21 52.5-100 100-97.7z" style="fill:#00a4e1;paint-order:markers fill stroke;stop-color:#000000;stroke-miterlimit:16;stroke-width:0 filter:url(#shadow)"/>
  <path d="m160 160v960h960v-960zm480 163c63.6 3.26 48.2 130 106 157 65.2 29.8 168-82.1 213-26.7 53.5 65.2-70.7 156-80 240-9.9 88.8 96.4 211 26.7 267-65.9 52.7-156-80-240-80-84.3 0-127 140-187 80-39.8-39.8 29-112 0-160-27.9-46.3-141 23.8-160-26.7-20.3-53.2 101-76.7 107-133 6.28-59.3-107-107-80-160 24.5-48.2 112-1.93 160-26.7 54.4-28 69.9-134 134-130z" style="fill:#07d4fb;paint-order:markers fill stroke;stop-color:#000000;stroke-miterlimit:16;stroke-width:0; filter:url(#shadow)"/>
  <path d="m120 120v1040h1040v-1040zm520 124c79.5 4.07 60.2 163 133 196 81.5 37.3 210-103 267-33.3 66.8 81.5-88.3 195-100 300-12.4 111 121 264 33.3 333-82.3 65.8-195-100-300-100-105 0-199 175-273 100-49.7-49.7 76.2-140 40-200-34.9-57.9-176 29.8-200-33.3-25.4-66.4 126-95.9 133-167 7.85-74.1-134-134-100-200 30.7-60.2 140-2.41 200-33.3 67.9-35 87.4-167 167-163z" style="fill:#80eeff;paint-order:markers fill stroke;stop-color:#000000;stroke-miterlimit:16;stroke-width:0; filter:url(#shadow)"/>
  <path d="m0 0v1280h1280v-1280zm640 165c95.4 4.89 72.3 195 160 235 97.7 44.7 252-123 320-40 80.2 97.8-106 234-120 360-14.8 133 145 316 40 400-98.8 79-234-120-360-120s-271 209-360 120c-59.6-59.6 123-168 80-240-41.8-69.5-211 35.7-240-40-30.5-79.7 151-115 160-200 9.42-88.9-161-160-120-240 36.8-72.3 168-2.89 240-40 81.5-42 105-200 200-195z" style="fill:#fff;paint-order:markers fill stroke;stop-color:#000000;stroke-miterlimit:16;stroke-width:0; filter:url(#shadow)"/>
  <path d="m280 202c-70.8 0-118 47.2-118 118 0 70.8 47.2 118 118 118 70.8 0 118-47.2 118-118 0-39.4-21-36.4-39.4-39.4-29-4.7-78.7 39.4-78.7 39.4s44.1-49.8 39.4-78.7c-2.97-18.3-7.87-39.4-39.4-39.4z" style="fill:#40c252;paint-order:markers fill stroke;stop-color:#000000;stroke-miterlimit:16;stroke-width:0; filter:url(#shadow)"/>
  <path d="m367 462c-10.2 0-9.69-29.1-9.69-29.1l0.607-12-8.04 8.9s-20.2 20.9-27.4 13.7c-7.22-7.22 13.7-27.4 13.7-27.4l8.9-8.04-12 0.607s-29.1 0.524-29.1-9.69c0-10.2 29.1-9.69 29.1-9.69l12 0.607-8.9-8.04s-20.9-20.2-13.7-27.4c7.22-7.22 27.4 13.7 27.4 13.7l8.04 8.9-0.607-12s-0.524-29.1 9.69-29.1c10.2 0 9.69 29.1 9.69 29.1l-0.607 12 8.05-8.9s20.2-20.9 27.4-13.7c7.22 7.22-13.7 27.4-13.7 27.4l-8.9 8.04 12-0.607s29.1-0.524 29.1 9.69c0 10.2-29.1 9.69-29.1 9.69l-12-0.607 8.9 8.04s20.9 20.2 13.7 27.4c-7.22 7.22-27.4-13.7-27.4-13.7l-8.05-8.9 0.607 12s0.524 29.1-9.69 29.1z" style="fill:#eee;paint-order:markers fill stroke;stop-color:#000000;stroke-miterlimit:16;stroke-width:0; filter:url(#shadow)"/>
  <path d="m348 443c-7.21-2.99 1.64-23.4 1.64-23.4l3.94-8.28-8.3 3.93s-20.4 8.87-23.4 1.63c-2.98-7.22 17.7-15.3 17.7-15.3l8.66-3.07-8.67-3.09s-20.8-8.14-17.8-15.4c3-7.23 23.4 1.69 23.4 1.69l8.31 3.94-3.95-8.29s-8.9-20.4-1.69-23.4c7.23-3 15.4 17.7 15.4 17.7l3.1 8.65 3.07-8.64s8.15-20.7 15.4-17.7c7.21 2.99-1.64 23.4-1.64 23.4l-3.94 8.28 8.3-3.93s20.4-8.87 23.4-1.63c2.98 7.22-17.7 15.3-17.7 15.3l-8.66 3.07 8.67 3.09s20.8 8.14 17.8 15.4c-3 7.23-23.4-1.69-23.4-1.69l-8.31-3.94 3.95 8.29s8.9 20.4 1.69 23.4c-7.23 3-15.4-17.7-15.4-17.7l-3.1-8.65-3.07 8.64s-8.15 20.7-15.4 17.7z" style="fill:#fff;paint-order:markers fill stroke;stop-color:#000000;stroke-miterlimit:16;stroke-width:0; filter:url(#shadow)"/>
  <path d="m367 418c-3.11 2.2e-4 -2.93-8.87-2.93-8.87l0.184-3.66-2.44 2.72s-6.1 6.37-8.3 4.18c-2.21-2.19 4.15-8.37 4.15-8.37l2.7-2.46-3.63 0.185s-8.8 0.138-8.8-2.96c0-3.1 8.8-2.96 8.8-2.96l3.63 0.185-2.7-2.46s-6.35-6.17-4.15-8.37c2.2-2.18 8.3 4.18 8.3 4.18l2.44 2.72-0.184-3.66s-0.181-8.87 2.93-8.87c3.11-1.3e-4 2.93 8.87 2.93 8.87l-0.184 3.66 2.44-2.72s6.1-6.37 8.3-4.18c2.21 2.19-4.15 8.37-4.15 8.37l-2.7 2.46 3.63-0.185s8.8-0.138 8.8 2.96c0 3.1-8.8 2.96-8.8 2.96l-3.63-0.185 2.7 2.46s6.35 6.17 4.15 8.37c-2.2 2.18-8.3-4.18-8.3-4.18l-2.44-2.72 0.184 3.66s0.182 8.88-2.93 8.88z" style="fill:#fded3a;paint-order:markers fill stroke;stop-color:#000000;stroke-miterlimit:16;stroke-width:0; filter:url(#shadow)"/>
    <path d="m816 1125c51.1 14.2 94.7-10.3 109-61.5 14.2-51.1-10.3-94.7-61.5-109-51.1-14.2-94.7 10.3-109 61.5-7.91 28.4 7.87 30.5 20.5 36.3 20 9.21 64.7-12.6 64.7-12.6s-41.8 27.1-44.2 48.9c-1.54 13.8-2.23 30 20.5 36.3z" style="fill:#40c252;paint-order:markers fill stroke;stop-color:#000000;stroke-miterlimit:16;stroke-width:0; filter:url(#shadow)"/>
    <path d="m744 805c-38.5 15.5-54.4 51.1-39.8 88.8 14.6 37.7 50 52.5 88.4 37 38.5-15.5 54.4-51.1 39.8-88.8-8.11-21-18.9-14.8-29.5-12.3-16.7 3.85-34.6 38.2-34.6 38.2s13.7-36.2 5.15-50.6c-5.39-9.1-12.4-19.2-29.5-12.3z" style="fill:#40c252;paint-order:markers fill stroke;stop-color:#000000;stroke-miterlimit:16;stroke-width:0; filter:url(#shadow)"/>
    <path d="m738 962c-7.89 0-7.48-20.4-7.48-20.4l0.469-8.42-6.21 6.25s-15.6 14.7-21.2 9.62c-5.58-5.07 10.6-19.2 10.6-19.2l6.88-5.65-9.26 0.426s-22.5 0.368-22.5-6.8c0-7.17 22.5-6.8 22.5-6.8l9.26 0.426-6.88-5.65s-16.2-14.2-10.6-19.2c5.58-5.07 21.2 9.62 21.2 9.62l6.21 6.25-0.469-8.42s-0.405-20.4 7.48-20.4c7.89 0 7.48 20.4 7.48 20.4l-0.469 8.42 6.22-6.25s15.6-14.7 21.2-9.62c5.58 5.07-10.6 19.2-10.6 19.2l-6.88 5.65 9.26-0.426s22.5-0.368 22.5 6.8c0 7.17-22.5 6.8-22.5 6.8l-9.26-0.426 6.88 5.65s16.2 14.2 10.6 19.2c-5.58 5.07-21.2-9.62-21.2-9.62l-6.22-6.25 0.469 8.42s0.405 20.4-7.48 20.4z" style="fill:#eee;paint-order:markers fill stroke;stop-color:#000000;stroke-miterlimit:16;stroke-width:0; filter:url(#shadow)"/>
    <path d="m724 949c-5.57-2.1 1.27-16.4 1.27-16.4l3.04-5.82-6.42 2.76s-15.8 6.23-18.1 1.15c-2.3-5.07 13.7-10.8 13.7-10.8l6.69-2.16-6.7-2.17s-16-5.71-13.7-10.8c2.32-5.08 18.1 1.19 18.1 1.19l6.42 2.77-3.06-5.83s-6.88-14.3-1.31-16.4c5.58-2.11 11.9 12.4 11.9 12.4l2.39 6.07 2.37-6.07s6.3-14.5 11.9-12.4c5.57 2.1-1.27 16.4-1.27 16.4l-3.04 5.82 6.42-2.76s15.8-6.23 18.1-1.15c2.3 5.07-13.7 10.8-13.7 10.8l-6.69 2.15 6.7 2.17s16 5.71 13.7 10.8c-2.32 5.08-18.1-1.19-18.1-1.19l-6.42-2.77 3.06 5.83s6.88 14.3 1.31 16.4c-5.58 2.11-11.9-12.4-11.9-12.4l-2.39-6.07-2.37 6.07s-6.3 14.5-11.9 12.4z" style="fill:#fff;paint-order:markers fill stroke;stop-color:#000000;stroke-miterlimit:16;stroke-width:0; filter:url(#shadow)"/>
    <path d="m738 932c-2.41 1.8e-4 -2.27-6.23-2.27-6.23l0.142-2.57-1.88 1.91s-4.71 4.47-6.41 2.94c-1.71-1.54 3.2-5.88 3.2-5.88l2.08-1.73-2.81 0.13s-6.8 0.0973-6.8-2.08c0-2.17 6.8-2.08 6.8-2.08l2.81 0.13-2.08-1.73s-4.91-4.34-3.2-5.88c1.7-1.53 6.41 2.94 6.41 2.94l1.88 1.91-0.142-2.57s-0.14-6.23 2.27-6.23c2.41-9e-5 2.27 6.23 2.27 6.23l-0.142 2.57 1.88-1.91s4.71-4.47 6.41-2.94c1.71 1.54-3.2 5.88-3.2 5.88l-2.08 1.73 2.8-0.13s6.8-0.0972 6.8 2.08c0 2.17-6.8 2.08-6.8 2.08l-2.8-0.13 2.08 1.73s4.91 4.34 3.2 5.88c-1.7 1.53-6.41-2.94-6.41-2.94l-1.88-1.91 0.142 2.57s0.14 6.23-2.27 6.23z" style="fill:#fded3a;paint-order:markers fill stroke;stop-color:#000000;stroke-miterlimit:16;stroke-width:0; filter:url(#shadow)"/>
  <path d="m640 520c-8.66 0-15.1 16-18.4 28.4-2.34 8.74-3.67 28.4-3.67 28.4s-13.6 8.57-17.9 15.3c-4.33 6.69 3.67 17.3 8 24 4.33 6.69 9.95-10.9 9.95-10.9s1.36 25.4 6.05 42.9c3.31 12.4 8.65 28.9 8.65 42.2s-7.71 16-11 28.4c-2.34 8.74-1.96 18.7 2.38 25.4 4.33 6.69 7.99 9.67 12.3 2.98 2.82-4.35 3.53-15.1 3.67-22 0.149 6.95 0.855 17.7 3.67 22 4.33 6.69 7.99 3.7 12.3-2.98 4.33-6.69 4.72-16.7 2.37-25.4-3.31-12.4-11-15-11-28.4s5.34-29.9 8.65-42.2c4.69-17.5 6.05-42.9 6.05-42.9s5.62 17.6 9.95 10.9c4.33-6.69 12.3-17.3 8-24-4.33-6.69-18-15.3-18-15.3s-1.33-19.6-3.67-28.4c-3.32-12.4-9.71-28.4-18.4-28.4z" style="fill:#fff;paint-order:markers fill stroke;stop-color:#000000;stroke-miterlimit:16;stroke-width:0; filter:url(#shadow)"/>
  <path d="m704 520c-8.66 0-10.1 15.8-10.4 27.5-0.268 11.7 4.33 27.5 4.33 27.5s-5.22 8.31-9.55 14.8c-4.33 6.49-2.17 17.2 2.16 23.7 4.33 6.49 7.39-10.9 7.39-10.9s1.36 24.7 6.05 41.6c3.31 12 0.649 28 0.649 41 0 13-14.6 15.5-17.9 27.5-2.34 8.48-2.89 14-0.928 20.7 1.96 6.7 8.38 6.83 12 1.47 3.58-5.36 6.1-9.28 6.25-16 0.149 6.74 0.855 17.1 3.67 21.4 4.33 6.49 7.99 3.6 12.3-2.9s4.72-16.2 2.37-24.6c-3.31-12-3.02-14.6-3.02-27.5s13.3-29 16.6-41c4.69-17 6.05-41.6 6.05-41.6s8.54 18.5 12.9 12c4.33-6.49 11.6-18.3 7.27-24.8-4.33-6.49-20.1-14.8-20.1-14.8s-9.33-19.1-11.7-27.5c-3.32-12-17.7-27.5-26.4-27.5z" style="fill:#fff;paint-order:markers fill stroke;stop-color:#000000;stroke-miterlimit:16;stroke-width:0; filter:url(#shadow)"/>
  <path d="m576 520c8.66 0 10.1 15.8 10.4 27.5 0.268 11.7-4.33 27.5-4.33 27.5s5.22 8.31 9.55 14.8c4.33 6.49 2.17 17.2-2.16 23.7-4.33 6.49-7.39-10.9-7.39-10.9s-1.36 24.7-6.05 41.6c-3.31 12-0.649 28-0.649 41 0 13 14.6 15.5 17.9 27.5 2.34 8.48 2.89 14 0.928 20.7-1.96 6.7-8.38 6.83-12 1.47-3.58-5.36-6.1-9.28-6.25-16-0.149 6.74-0.855 17.1-3.67 21.4-4.33 6.49-7.99 3.6-12.3-2.9s-4.72-16.2-2.37-24.6c3.31-12 3.02-14.6 3.02-27.5s-13.3-29-16.6-41c-4.69-17-6.05-41.6-6.05-41.6s-8.54 18.5-12.9 12c-4.33-6.49-11.6-18.3-7.27-24.8 4.33-6.49 20.1-14.8 20.1-14.8s9.33-19.1 11.7-27.5c3.32-12 17.7-27.5 26.4-27.5z" style="fill:#fff;paint-order:markers fill stroke;stop-color:#000000;stroke-miterlimit:16;stroke-width:0; filter:url(#shadow)"/>
</svg>
